<svg width="90" height="82" viewBox="0 0 90 82" fill="none" xmlns="http://www.w3.org/2000/svg">
<path d="M18.3535 81.1028L56.8876 54.4254L48.9072 40.9727L18.3535 81.1028Z" fill="#c9a84c"/>
<path d="M89.836 0.500366H-0.000976562V55.7934H89.836V0.500366Z" fill="#c9a84c"/>
<path d="M79.4047 37.1761H10.6133V37.4042H79.4047V37.1761Z" fill="#42271e"/>
<path d="M79.2888 12.4497H79.1291C78.6959 12.4497 78.3539 12.4497 78.2398 12.4497C78.1372 12.4497 77.6356 12.4497 77.1682 12.4497H76.9972C76.9638 12.4587 76.9338 12.4778 76.9114 12.5043C76.889 12.5307 76.8752 12.5634 76.8718 12.5979C76.8595 12.631 76.8595 12.6674 76.8718 12.7005C76.9158 12.7171 76.9645 12.7171 77.0086 12.7005C77.1736 12.7017 77.338 12.7208 77.4988 12.7575C77.5598 12.7707 77.6161 12.7998 77.6622 12.8419C77.7082 12.8839 77.7423 12.9374 77.761 12.9969C77.8172 13.2437 77.844 13.4963 77.8409 13.7494L77.9434 19.2103C77.4988 18.6858 76.5069 17.5002 75.6633 16.4513C74.0672 14.6044 72.5168 12.8031 72.3686 12.6093L72.1747 12.3927C72.1063 12.3129 72.0494 12.2331 71.9468 12.2217C71.8555 12.2217 71.7985 12.3129 71.7757 12.4041C71.7666 12.5598 71.7666 12.7158 71.7757 12.8715V19.29C71.8079 19.6389 71.8079 19.99 71.7757 20.3389C71.7757 20.5441 71.6731 20.6011 71.5819 20.6353C71.4541 20.6818 71.3189 20.7049 71.1829 20.7037C71.165 20.6955 71.1455 20.6913 71.1259 20.6913C71.1062 20.6913 71.0868 20.6955 71.0689 20.7037C71.0508 20.7167 71.0362 20.7338 71.0263 20.7537C71.0164 20.7736 71.0114 20.7955 71.0119 20.8177C71.0103 20.8503 71.0195 20.8824 71.0381 20.9092C71.0566 20.936 71.0834 20.9559 71.1145 20.9659C71.1631 20.978 71.214 20.978 71.2627 20.9659C71.7301 20.9659 72.1747 20.9659 72.2545 20.9659C72.3343 20.9659 72.7675 20.9659 73.3946 20.9659C73.4509 20.9787 73.5093 20.9787 73.5656 20.9659C73.5957 20.9544 73.6216 20.9342 73.6399 20.9077C73.6582 20.8813 73.668 20.8499 73.6682 20.8177C73.6687 20.7955 73.6637 20.7736 73.6538 20.7537C73.6439 20.7338 73.6292 20.7167 73.6112 20.7037C73.5931 20.6962 73.5738 20.6923 73.5542 20.6923C73.5346 20.6923 73.5153 20.6962 73.4972 20.7037C73.3315 20.7033 73.1665 20.6803 73.007 20.6353C72.7904 20.5783 72.6764 20.3389 72.6536 19.4155L72.5281 14.3194C72.9841 14.878 74.0217 16.1207 75.0819 17.352C76.1422 18.5832 77.6812 20.2819 77.7952 20.3959C78.3538 20.9773 78.4451 21.1141 78.6047 21.1369C78.6269 21.1374 78.6489 21.1325 78.6688 21.1225C78.6886 21.1126 78.7058 21.098 78.7187 21.08C78.7757 20.9773 78.7757 20.8177 78.7757 20.2591V13.6923C78.744 13.4616 78.744 13.2276 78.7757 12.9969C78.7967 12.9411 78.832 12.8917 78.878 12.8537C78.924 12.8157 78.9791 12.7904 79.0379 12.7803C79.1134 12.7673 79.1905 12.7673 79.2659 12.7803C79.2899 12.7835 79.3142 12.7819 79.3376 12.7756C79.361 12.7692 79.3829 12.7583 79.402 12.7435C79.4211 12.7286 79.437 12.7101 79.4489 12.689C79.4607 12.668 79.4683 12.6447 79.4711 12.6207C79.4662 12.5884 79.4531 12.5578 79.4332 12.5319C79.4133 12.506 79.3871 12.4856 79.3572 12.4725" fill="#42271e"/>
<path d="M63.9338 20.6468C62.0755 20.6468 60.6162 19.0165 60.6162 16.4399C60.6162 13.8634 61.9044 12.8374 63.6373 12.826C65.3702 12.8146 66.7839 14.2282 66.7839 16.8846C66.7839 20.0996 64.8686 20.6354 63.9338 20.6468ZM66.7611 13.4188C65.9322 12.6591 64.8411 12.2505 63.7172 12.2787C63.0916 12.2649 62.4713 12.3968 61.9055 12.6639C61.3396 12.931 60.8436 13.3261 60.4566 13.8178C59.8136 14.66 59.4615 15.6882 59.4533 16.7478C59.4434 17.8311 59.7877 18.8879 60.4338 19.7575C60.8183 20.2395 61.3105 20.6247 61.8708 20.8821C62.4311 21.1395 63.044 21.2619 63.6602 21.2396C64.253 21.2492 64.8408 21.1309 65.3838 20.8929C65.9268 20.6548 66.4121 20.3026 66.8067 19.8601C67.573 18.936 67.9781 17.7654 67.9468 16.5654C67.9663 15.9857 67.8682 15.4081 67.6586 14.8673C67.4489 14.3266 67.132 13.8338 66.7269 13.4188" fill="#42271e"/>
<path d="M10.8291 12.6321H11.0914C11.1651 12.6265 11.2392 12.6374 11.3083 12.6638C11.3773 12.6903 11.4398 12.7317 11.491 12.7851C11.5422 12.8385 11.5809 12.9025 11.6045 12.9726C11.628 13.0428 11.6358 13.1173 11.6272 13.1907V20.2363V20.3047C11.6272 20.6809 11.3307 20.6923 11.2053 20.7037C11.0457 20.7037 10.9431 20.7037 10.9203 20.8747C10.9336 20.9297 10.966 20.9781 11.0116 21.0115H13.5539C13.6367 21.0278 13.7219 21.0278 13.8047 21.0115C13.8343 21.0048 13.861 20.9892 13.8814 20.9667C13.9018 20.9443 13.9148 20.9162 13.9187 20.8862C13.9224 20.8482 13.9224 20.8101 13.9187 20.7721L13.189 20.6809C13.1339 20.6635 13.084 20.6325 13.0442 20.5906C13.0043 20.5487 12.9757 20.4974 12.961 20.4415C12.9569 20.3922 12.9569 20.3426 12.961 20.2933V13.0881C12.9587 13.0408 12.9705 12.994 12.9949 12.9534C13.0192 12.9128 13.055 12.8803 13.0978 12.8601C13.175 12.8196 13.2615 12.8 13.3487 12.8031H13.4399C13.9871 12.8031 14.6939 12.8031 14.6939 12.8031H14.8421C17.0425 12.8031 17.4529 13.7265 17.4643 14.479C17.4643 14.479 17.4643 14.5474 17.4643 14.5816C17.4801 14.8939 17.3919 15.2026 17.2135 15.4595C16.6326 16.0621 15.873 16.4619 15.0473 16.5995C14.6943 16.6854 14.3364 16.7501 13.9757 16.7933H13.6337H13.5083C13.3829 16.7933 13.2803 16.8617 13.2803 16.9643C13.2832 17.0168 13.3061 17.0661 13.3443 17.1021C13.3825 17.1382 13.433 17.1582 13.4855 17.1581C18.0457 16.7705 18.5131 14.7982 18.5131 14.137C18.5176 14.0763 18.5176 14.0153 18.5131 13.9546C18.3649 12.3813 16.233 12.2217 15.207 12.2217H10.9659C10.8861 12.2787 10.8291 12.3357 10.8291 12.4155C10.8291 12.4953 10.9659 12.5637 11.0343 12.5865" fill="#42271e"/>
<path d="M53.6504 12.7567C53.7602 12.743 53.8713 12.743 53.9811 12.7567C54.1863 12.8137 54.2661 12.9391 54.3003 13.3153C54.3345 13.6915 54.3003 13.9765 54.3003 15.7208V17.7045C54.3003 18.7762 54.3003 19.6654 54.3003 20.1215C54.3003 20.5775 54.1863 20.6459 54.0381 20.6687C53.9319 20.679 53.825 20.679 53.7188 20.6687C53.6779 20.657 53.6344 20.657 53.5934 20.6687C53.5859 20.6868 53.582 20.7061 53.582 20.7257C53.582 20.7453 53.5859 20.7646 53.5934 20.7827C53.5927 20.8136 53.6009 20.844 53.6171 20.8703C53.6333 20.8966 53.6568 20.9177 53.6847 20.9309C53.741 20.9436 53.7993 20.9436 53.8556 20.9309H54.9957C54.9957 20.9309 55.7596 20.9309 56.3752 20.9309C56.5006 20.9309 56.626 20.9309 56.626 20.7599C56.6336 20.7418 56.6374 20.7225 56.6374 20.7029C56.6374 20.6833 56.6336 20.664 56.626 20.6459C56.5851 20.6342 56.5416 20.6342 56.5006 20.6459H56.0104C55.7254 20.6459 55.6911 20.4293 55.6455 20.0987C55.5999 19.7681 55.6455 18.7534 55.6455 17.6817V15.698C55.6455 13.9537 55.6455 13.6459 55.6455 13.2925C55.6455 12.9391 55.7254 12.7795 55.9876 12.7225H56.2498C56.2717 12.7257 56.2939 12.7243 56.3152 12.7184C56.3365 12.7126 56.3564 12.7023 56.3735 12.6884C56.3907 12.6745 56.4048 12.6571 56.4149 12.6375C56.425 12.6178 56.4308 12.5963 56.4322 12.5743C56.4316 12.5437 56.4229 12.5137 56.4069 12.4877C56.3908 12.4616 56.3681 12.4403 56.341 12.4261C56.2847 12.414 56.2264 12.414 56.17 12.4261H55.0299H53.8899C53.8336 12.4133 53.7751 12.4133 53.7188 12.4261C53.6899 12.438 53.6656 12.4588 53.6492 12.4854C53.6329 12.512 53.6253 12.5431 53.6277 12.5743C53.629 12.5948 53.6346 12.6149 53.6441 12.6332C53.6536 12.6514 53.6669 12.6675 53.683 12.6804C53.6991 12.6933 53.7176 12.7027 53.7376 12.7079C53.7575 12.7132 53.7783 12.7143 53.7986 12.7111" fill="#42271e"/>
<path d="M45.2019 12.7563H45.5553C45.9087 12.8475 45.9429 12.9387 45.9771 13.3264C46.0113 13.714 45.9771 13.9876 45.9771 15.7319V17.7156C45.9771 18.7872 45.9771 19.6765 45.9201 20.1325C45.8631 20.5886 45.8175 20.6569 45.6693 20.6797C45.5593 20.6901 45.4486 20.6901 45.3387 20.6797C45.2977 20.668 45.2543 20.668 45.2133 20.6797C45.2058 20.6978 45.2019 20.7172 45.2019 20.7368C45.2019 20.7563 45.2058 20.7757 45.2133 20.7938C45.2125 20.8246 45.2207 20.8551 45.2369 20.8814C45.2531 20.9077 45.2765 20.9287 45.3044 20.942C45.3609 20.953 45.419 20.953 45.4755 20.942H46.6155C47.254 20.942 48.8957 21.0104 50.526 21.0104C50.7224 21.0333 50.9216 21.0099 51.1074 20.942C51.2328 20.942 51.267 20.771 51.3126 20.6455C51.3997 20.2706 51.4569 19.8894 51.4836 19.5055C51.4962 19.453 51.4962 19.3984 51.4836 19.3459C51.476 19.3188 51.4595 19.2951 51.4367 19.2786C51.414 19.262 51.3863 19.2536 51.3582 19.2547C51.2214 19.2547 51.1872 19.3801 51.1758 19.4713C51.1402 19.7004 51.0459 19.9164 50.9022 20.0983C50.6856 20.372 50.2409 20.4061 49.6595 20.4061C49.2263 20.4061 48.7133 20.4062 48.2801 20.3492C48.0027 20.3369 47.7292 20.2791 47.4706 20.1781C47.3224 20.0413 47.2426 19.3573 47.2426 17.8296V15.6635C47.2426 13.9192 47.2426 13.6114 47.2426 13.258C47.2426 12.9045 47.3224 12.7449 47.6074 12.6879H47.9608C47.9821 12.6912 48.0038 12.6899 48.0246 12.6839C48.0453 12.678 48.0644 12.6676 48.0807 12.6535C48.097 12.6394 48.11 12.6219 48.1188 12.6022C48.1277 12.5826 48.1321 12.5613 48.1319 12.5397C48.1342 12.5086 48.1267 12.4774 48.1103 12.4508C48.0939 12.4242 48.0695 12.4034 48.0406 12.3915C47.9843 12.3788 47.9259 12.3788 47.8696 12.3915H46.6611C46.6041 12.3915 45.8973 12.3915 45.3957 12.3915C45.3355 12.3795 45.2735 12.3795 45.2133 12.3915C45.1862 12.4058 45.1634 12.4271 45.1474 12.4531C45.1314 12.4792 45.1226 12.5091 45.1221 12.5397C45.1234 12.5603 45.129 12.5803 45.1386 12.5986C45.1481 12.6169 45.1613 12.633 45.1774 12.6459C45.1935 12.6587 45.2121 12.6681 45.232 12.6734C45.2519 12.6787 45.2728 12.6797 45.2931 12.6765" fill="#42271e"/>
<path d="M21.7523 17.2032L22.7328 14.2048L23.7817 17.2032H21.7523ZM27.3158 20.7716H27.1904C27.047 20.7725 26.9044 20.7493 26.7686 20.7032C26.5634 20.6348 26.2669 20.498 25.8565 19.5061C25.1725 17.8074 23.4168 13.1788 23.2458 12.7456C23.2035 12.6268 23.15 12.5123 23.0862 12.4036C23.0732 12.3713 23.0513 12.3435 23.023 12.3233C22.9947 12.3031 22.9613 12.2914 22.9266 12.2896C22.8901 12.295 22.8554 12.3093 22.8256 12.3312C22.7958 12.353 22.7718 12.3817 22.7556 12.4149C22.7556 12.4833 22.6758 12.5974 22.6074 12.7798L20.065 19.7456C19.8598 20.3042 19.6546 20.6918 19.1872 20.7488H18.8793C18.8569 20.7456 18.834 20.7469 18.812 20.7527C18.79 20.7584 18.7694 20.7685 18.7514 20.7823C18.7333 20.7961 18.7182 20.8133 18.7069 20.833C18.6956 20.8527 18.6883 20.8745 18.6855 20.897C18.6865 20.9306 18.6981 20.9629 18.7186 20.9896C18.7391 21.0162 18.7674 21.0356 18.7995 21.0452C18.8597 21.0578 18.9218 21.0578 18.982 21.0452C19.5178 21.0452 20.122 21.0452 20.2588 21.0452H21.1253C21.1778 21.057 21.2324 21.057 21.2849 21.0452C21.3138 21.0333 21.3381 21.0125 21.3545 20.9859C21.3709 20.9593 21.3784 20.9282 21.3761 20.897C21.3765 20.8735 21.3704 20.8504 21.3583 20.8302C21.3462 20.81 21.3286 20.7937 21.3077 20.783C21.2667 20.7713 21.2233 20.7713 21.1823 20.783H21.0683C20.8973 20.783 20.7262 20.6918 20.7262 20.5436C20.7402 20.2971 20.7941 20.0545 20.8859 19.8253L21.5585 17.8416H23.9755L25.0129 20.5892C25.0216 20.6229 25.0216 20.6582 25.0129 20.6918C25.0129 20.7602 25.0129 20.783 25.0129 20.783C24.9746 20.7885 24.9396 20.8077 24.9145 20.8371C24.8893 20.8665 24.8757 20.904 24.8761 20.9426C24.8816 20.9809 24.9009 21.0158 24.9302 21.041C24.9596 21.0662 24.997 21.0798 25.0357 21.0794C25.1226 21.0929 25.211 21.0929 25.2979 21.0794C26.0503 21.0794 26.8484 21.0794 27.0422 21.0794C27.1063 21.0912 27.1719 21.0912 27.236 21.0794C27.2634 21.0722 27.2884 21.0579 27.3085 21.0379C27.3285 21.0178 27.3428 20.9928 27.35 20.9654C27.3501 20.9404 27.3439 20.9159 27.3319 20.8939C27.3199 20.872 27.3026 20.8535 27.2816 20.84" fill="#42271e"/>
<path d="M38.7163 12.7567C38.826 12.7422 38.9371 12.7422 39.0469 12.7567C39.2521 12.8137 39.3319 12.9391 39.3661 13.3153C39.4003 13.6915 39.3661 13.9765 39.3661 15.7208V17.6931C39.3661 18.7762 39.3661 19.6654 39.3661 20.1215C39.3661 20.5775 39.2635 20.6459 39.1039 20.6687C38.9978 20.6798 38.8908 20.6798 38.7847 20.6687C38.7437 20.657 38.7003 20.657 38.6593 20.6687C38.6518 20.6868 38.6479 20.7061 38.6479 20.7257C38.6479 20.7453 38.6518 20.7646 38.6593 20.7827C38.6585 20.8136 38.6667 20.844 38.6829 20.8703C38.6991 20.8966 38.7225 20.9177 38.7505 20.9309C38.8067 20.9436 38.8652 20.9436 38.9215 20.9309H40.0616C40.0616 20.9309 40.814 20.9309 41.4296 20.9309C41.555 20.9309 41.6804 20.9309 41.6918 20.7599C41.6907 20.738 41.685 20.7166 41.6752 20.697C41.6654 20.6774 41.6517 20.66 41.6348 20.6459C41.598 20.6329 41.5577 20.6329 41.5209 20.6459H41.0306C40.7456 20.6459 40.7114 20.4293 40.6658 20.0987C40.6202 19.7681 40.6658 18.7534 40.6658 17.6703V15.698C40.6658 13.9537 40.6658 13.6459 40.6658 13.2925C40.6658 12.9391 40.757 12.7795 41.0192 12.7225H41.2814C41.3027 12.7258 41.3245 12.7244 41.3452 12.7185C41.3659 12.7125 41.385 12.7021 41.4013 12.688C41.4176 12.6739 41.4306 12.6564 41.4395 12.6368C41.4483 12.6171 41.4527 12.5958 41.4525 12.5743C41.4548 12.5431 41.4473 12.512 41.4309 12.4854C41.4145 12.4588 41.3901 12.438 41.3612 12.4261C41.3049 12.4133 41.2465 12.4133 41.1902 12.4261H40.0501H38.9101C38.8537 12.414 38.7955 12.414 38.7391 12.4261C38.7102 12.438 38.6858 12.4588 38.6695 12.4854C38.6531 12.512 38.6455 12.5431 38.6479 12.5743C38.6492 12.5948 38.6549 12.6149 38.6644 12.6332C38.6739 12.6514 38.6871 12.6675 38.7032 12.6804C38.7193 12.6933 38.7379 12.7027 38.7578 12.7079C38.7777 12.7132 38.7986 12.7143 38.8189 12.7111" fill="#42271e"/>
<path d="M27.6678 12.757C27.8005 12.7438 27.9341 12.7438 28.0668 12.757C28.4431 12.871 28.5571 12.9508 28.8079 13.5664L31.5554 20.4068C31.6694 20.6804 31.7379 20.8514 31.7949 20.9654C31.8519 21.0794 31.9317 21.1592 32.0343 21.1592C32.1483 21.1592 32.2053 21.068 32.2623 20.9312C32.3193 20.7944 32.4219 20.5892 32.5815 20.2586C32.8323 19.7 33.3454 18.4915 34.0294 16.8384C34.5994 15.4589 35.1694 14.1137 35.2834 13.7945C35.5799 13.0306 35.7395 12.8596 35.8649 12.7798C36.0105 12.6962 36.1758 12.653 36.3437 12.6544C36.3924 12.6665 36.4432 12.6665 36.4919 12.6544C36.513 12.6409 36.5303 12.6224 36.5422 12.6005C36.5542 12.5785 36.5604 12.5539 36.5603 12.529C36.5594 12.4984 36.5491 12.4688 36.5307 12.4443C36.5124 12.4198 36.4869 12.4016 36.4577 12.3922C36.4014 12.3794 36.343 12.3794 36.2867 12.3922C35.9675 12.3922 35.4772 12.3922 35.4088 12.3922C35.3404 12.3922 34.7704 12.3922 34.2688 12.3922C34.1972 12.3791 34.1238 12.3791 34.0522 12.3922C34.0208 12.4031 33.9934 12.423 33.9731 12.4493C33.9529 12.4756 33.9407 12.5073 33.9382 12.5404C33.9395 12.5693 33.9488 12.5973 33.9648 12.6214C33.9809 12.6455 34.0032 12.6648 34.0294 12.6772H34.1662C34.291 12.6591 34.4177 12.6591 34.5424 12.6772C34.5741 12.695 34.5996 12.722 34.6159 12.7545C34.6321 12.787 34.6383 12.8236 34.6336 12.8596C34.6211 12.9961 34.5905 13.1303 34.5424 13.2586C34.303 14.0225 32.9122 17.6593 32.2623 19.2782L30.176 13.7374C30.0523 13.446 29.9532 13.1447 29.8796 12.8368C29.878 12.8042 29.8872 12.7721 29.9057 12.7453C29.9243 12.7185 29.9512 12.6986 29.9822 12.6886C30.1035 12.6487 30.2307 12.6294 30.3584 12.6316C30.4026 12.6472 30.4509 12.6472 30.4952 12.6316C30.514 12.6194 30.5293 12.6024 30.5393 12.5823C30.5493 12.5623 30.5538 12.5399 30.5522 12.5176C30.5523 12.4801 30.5383 12.4441 30.5129 12.4166C30.4875 12.3891 30.4527 12.3723 30.4154 12.3694C30.3322 12.3565 30.2477 12.3565 30.1646 12.3694C29.7428 12.3694 29.2298 12.3694 29.1271 12.3694C29.0245 12.3694 28.3519 12.3694 27.816 12.3694H27.6678C27.6315 12.3746 27.598 12.3921 27.5731 12.4191C27.5481 12.4461 27.5333 12.4809 27.531 12.5176C27.517 12.5543 27.517 12.5949 27.531 12.6316C27.5713 12.6475 27.6161 12.6475 27.6564 12.6316" fill="#42271e"/>
<path d="M18.547 33.3353C18.3874 33.2555 18.376 33.2099 18.376 32.9021C18.376 32.3435 18.376 31.8874 18.376 31.705C18.376 31.5226 18.376 31.5226 18.4672 31.5226C18.5584 31.5226 18.547 31.5226 18.547 31.648C18.5322 31.7882 18.5322 31.9296 18.547 32.0699C18.6407 32.4285 18.8606 32.7412 19.1664 32.9507C19.4722 33.1601 19.8433 33.2522 20.2115 33.2099C20.4185 33.2257 20.6265 33.1984 20.8225 33.1298C21.0184 33.0612 21.1981 32.9529 21.3501 32.8116C21.5022 32.6702 21.6233 32.499 21.706 32.3085C21.7886 32.1181 21.831 31.9126 21.8304 31.705C21.8304 30.9298 21.4998 30.4738 20.5307 29.6757L20.0291 29.2653C18.889 28.2734 18.5584 27.578 18.5584 26.8142C18.5616 26.5268 18.6247 26.2433 18.7438 25.9818C18.8629 25.7203 19.0353 25.4866 19.25 25.2955C19.4646 25.1045 19.7168 24.9604 19.9903 24.8725C20.2639 24.7845 20.5528 24.7547 20.8385 24.7848C21.191 24.7775 21.5431 24.8119 21.8874 24.8875C22.0162 24.9008 22.1462 24.9008 22.275 24.8875C22.3662 24.8875 22.389 24.8875 22.389 24.9673C22.389 25.0471 22.389 25.4005 22.389 26.1643C22.389 26.3467 22.389 26.4265 22.3092 26.4265C22.2294 26.4265 22.2408 26.3695 22.2294 26.2783C22.2084 26.0857 22.1584 25.8974 22.0812 25.7197C22.0128 25.5943 21.705 25.1155 20.6675 25.1155C20.488 25.1011 20.3074 25.1245 20.1375 25.1842C19.9676 25.2439 19.8121 25.3386 19.681 25.4622C19.55 25.5857 19.4462 25.7354 19.3766 25.9015C19.3069 26.0676 19.2729 26.2465 19.2767 26.4265C19.2767 27.065 19.573 27.4754 20.6561 28.319L20.9754 28.5699C22.3092 29.6187 22.617 30.3255 22.617 31.2262C22.6126 31.5906 22.5239 31.9491 22.3577 32.2735C22.1916 32.5979 21.9525 32.8794 21.6594 33.0959C21.1558 33.4263 20.5627 33.5935 19.9607 33.5747C19.4384 33.5893 18.9197 33.484 18.4444 33.2669" fill="#42271e"/>
<path d="M30.3474 33.2096C31.362 33.2096 33.4598 32.6168 33.4598 29.3334C33.4598 26.6314 31.8181 25.1722 30.0396 25.1722C28.2611 25.1722 26.7448 26.4148 26.7448 28.8888C26.7448 31.3627 28.3181 33.2096 30.3474 33.2096ZM31.8523 33.2096C31.2965 33.4601 30.6947 33.5921 30.0852 33.5972C29.4969 33.6234 28.9096 33.5263 28.361 33.3124C27.8123 33.0985 27.3144 32.7723 26.8991 32.3549C26.4838 31.9374 26.1602 31.4378 25.9491 30.888C25.738 30.3383 25.644 29.7505 25.6732 29.1624C25.6654 28.5779 25.7753 27.9979 25.9964 27.4568C26.2176 26.9158 26.5454 26.4248 26.9602 26.0131C27.3751 25.6014 27.8687 25.2774 28.4114 25.0604C28.9542 24.8435 29.5351 24.7381 30.1194 24.7503C30.6959 24.7052 31.2753 24.7821 31.8201 24.9759C32.3648 25.1697 32.8626 25.4761 33.281 25.8751C33.6995 26.2742 34.0291 26.7569 34.2485 27.2919C34.4678 27.8269 34.572 28.402 34.5542 28.98C34.5553 29.7269 34.3729 30.4628 34.0231 31.1228C33.6732 31.7827 33.1666 32.3467 32.5478 32.765L34.8279 33.905C36.2804 34.73 37.9123 35.1879 39.5819 35.2389C40.3437 35.2258 41.0968 35.0751 41.8051 34.7943H41.9646C41.9828 34.7943 42.0002 34.8015 42.013 34.8143C42.0258 34.8272 42.033 34.8445 42.033 34.8627C42.033 34.8627 42.0331 34.9425 41.9419 34.9767C40.8194 35.4942 39.5981 35.7626 38.3621 35.7633C36.708 35.6611 35.1072 35.1392 33.7106 34.247L31.8523 33.2096Z" fill="#42271e"/>
<path d="M38.2603 28.216C38.2603 26.4603 38.2603 26.1411 38.2603 25.7877C38.2603 25.4343 38.1464 25.2177 37.7815 25.1379C37.6526 25.1261 37.5229 25.1261 37.394 25.1379C37.394 25.1379 37.3027 25.1379 37.3027 25.0695C37.3027 25.0011 37.3597 24.9783 37.4851 24.9783C37.9867 24.9783 38.6252 24.9783 38.7848 24.9783H39.9249C40.0503 24.9783 40.1072 24.9783 40.1072 25.0695C40.1072 25.1607 40.1073 25.1379 40.0161 25.1379H39.7311C39.4233 25.1379 39.3321 25.3887 39.3093 25.7877C39.2865 26.1867 39.3093 26.4603 39.3093 28.216V29.8007C39.2384 30.2987 39.2784 30.8063 39.4262 31.2871C39.574 31.7679 39.826 32.2102 40.1643 32.5825C40.3859 32.8027 40.6523 32.9727 40.9454 33.0809C41.2385 33.1891 41.5514 33.233 41.863 33.2095C42.198 33.2071 42.5287 33.1337 42.8333 32.9942C43.1378 32.8546 43.4094 32.6521 43.6301 32.4001C44.1531 31.5761 44.3859 30.601 44.2913 29.6297V28.216C44.2913 26.4603 44.2913 26.1411 44.2913 25.7877C44.2913 25.4343 44.1773 25.2177 43.8011 25.1379C43.676 25.1261 43.55 25.1261 43.4249 25.1379C43.4249 25.1379 43.3336 25.1379 43.3336 25.0695C43.3336 25.0011 43.3907 24.9783 43.5161 24.9783C44.0177 24.9783 44.6561 24.9783 44.6561 24.9783C44.6561 24.9783 45.2717 24.9783 45.6138 24.9783C45.7278 24.9783 45.7848 24.9783 45.7848 25.0695C45.782 25.0886 45.7724 25.1061 45.7577 25.1187C45.7431 25.1312 45.7243 25.1381 45.705 25.1379H45.42C45.1122 25.2063 45.021 25.3887 44.9982 25.7877C44.9754 26.1867 44.9982 26.4603 44.9982 28.216V29.4245C45.0741 30.0355 45.021 30.6555 44.8423 31.2446C44.6636 31.8338 44.3632 32.3789 43.9607 32.8447C43.3372 33.4083 42.5207 33.7104 41.6805 33.6883C40.8473 33.7053 40.0364 33.4175 39.4004 32.8789C39.0331 32.4846 38.7553 32.0156 38.5861 31.504C38.4168 30.9924 38.3602 30.4503 38.42 29.9147L38.2603 28.216Z" fill="#42271e"/>
<path d="M52.0085 29.7436C52.0085 29.7436 52.0085 29.7436 52.0085 29.6638L50.9368 26.6198C50.876 26.445 50.819 26.445 50.7658 26.6198L49.774 29.6638C49.774 29.7208 49.774 29.7436 49.774 29.7436H52.0085ZM50.8684 25.1834C51.0052 24.8185 51.0508 24.7501 51.1192 24.7501C51.1877 24.7501 51.2333 24.8071 51.3587 25.1492C51.4841 25.4912 53.3082 30.2452 53.9922 31.9895C54.4026 32.9928 54.7218 33.1296 54.9613 33.2436C55.1087 33.2902 55.2626 33.3133 55.4173 33.312C55.4857 33.312 55.5313 33.312 55.5313 33.3804C55.5313 33.4488 55.4287 33.4716 55.3033 33.4716C55.1778 33.4716 54.3114 33.4716 53.5248 33.4716C53.3196 33.4716 53.1942 33.4716 53.1942 33.3918C53.1942 33.312 53.1942 33.3234 53.274 33.312C53.3538 33.3006 53.4108 33.1866 53.3424 33.0042L52.2935 30.2338C52.2861 30.2128 52.2721 30.1948 52.2536 30.1825C52.2351 30.1702 52.2131 30.1642 52.1909 30.1654H49.7626C49.7364 30.1668 49.7113 30.1764 49.6909 30.1927C49.6705 30.2091 49.6557 30.2314 49.6486 30.2566L48.9759 32.2517C48.8817 32.4921 48.8278 32.7463 48.8163 33.0042C48.8163 33.2322 49.0557 33.3348 49.2381 33.3348H49.3522C49.432 33.3348 49.4661 33.3348 49.4661 33.4032C49.4661 33.4716 49.3977 33.4944 49.2951 33.4944H48.4173C48.2919 33.4944 47.6763 33.4944 47.1404 33.4944C46.9922 33.4944 46.9238 33.4944 46.9238 33.4032C46.9238 33.312 46.9238 33.3348 47.0264 33.3348H47.3571C47.8815 33.2664 48.098 32.8332 48.3033 32.2745L50.8684 25.1834Z" fill="#42271e"/>
<path d="M58.9966 29.2081C58.9953 29.2332 59.0011 29.2583 59.0132 29.2804C59.0252 29.3025 59.0432 29.3209 59.065 29.3335C59.4303 29.4648 59.817 29.5267 60.2051 29.5159C60.5055 29.5329 60.804 29.4572 61.0601 29.2993C61.302 29.0843 61.49 28.8155 61.6089 28.5144C61.7277 28.2134 61.7741 27.8886 61.7442 27.5664C61.7442 26.1527 61.0031 25.2863 59.7947 25.2863C59.5383 25.2803 59.2821 25.3033 59.0308 25.3547C59.0038 25.3648 58.9811 25.3839 58.9666 25.4089C58.9521 25.4338 58.9466 25.463 58.951 25.4915L58.9966 29.2081ZM58.0846 28.2162C58.0846 26.4605 58.0846 26.1413 58.0846 25.7879C58.0846 25.4345 57.9706 25.2178 57.6058 25.138C57.4768 25.1263 57.347 25.1263 57.2181 25.138C57.2181 25.138 57.127 25.138 57.127 25.0696C57.127 25.0012 57.1269 24.9785 57.3093 24.9785C57.8224 24.9785 58.5292 24.9785 58.5862 24.9785H59.92C60.6437 24.9225 61.3664 25.0982 61.9836 25.4801C62.2215 25.6606 62.415 25.8931 62.5493 26.1599C62.6837 26.4266 62.7554 26.7205 62.7589 27.0191C62.7343 27.526 62.5991 28.0213 62.3627 28.4704C62.1264 28.9194 61.7947 29.3113 61.3908 29.6185C62.3142 30.7585 63.0895 31.8074 63.7393 32.5142C64.0915 32.9357 64.579 33.2218 65.1187 33.3237C65.2667 33.3357 65.4154 33.3357 65.5634 33.3237C65.5634 33.3237 65.6546 33.3237 65.6546 33.3921C65.6546 33.4605 65.5862 33.4833 65.3924 33.4833H64.5829C64.1717 33.5208 63.7579 33.446 63.3859 33.2667C62.7702 32.8049 62.2544 32.2231 61.8696 31.5566C61.3908 30.941 60.8663 30.1885 60.6383 29.8921C60.6206 29.87 60.598 29.8523 60.5723 29.8404C60.5465 29.8285 60.5184 29.8228 60.4901 29.8237H59.0992C59.0992 29.8237 59.0308 29.8237 59.0308 29.9149V30.1885C59.0308 31.2716 59.0308 32.1608 59.0308 32.6283C59.0308 33.0957 59.1335 33.2097 59.4755 33.2553H59.9885C60.0569 33.2553 60.0797 33.2553 60.0797 33.3237C60.0797 33.3921 60.0227 33.4149 59.8973 33.4149C59.2703 33.4149 58.5634 33.4149 58.5064 33.4149H57.4461C57.3207 33.4149 57.2638 33.4149 57.2638 33.3237C57.2638 33.2325 57.2637 33.2553 57.3549 33.2553C57.4686 33.2664 57.5832 33.2664 57.697 33.2553C57.9136 33.2553 57.9706 32.9589 58.0162 32.6283C58.0618 32.2976 58.0162 31.2716 58.0162 30.1885L58.0846 28.2162Z" fill="#42271e"/>
<path d="M67.57 28.2168C67.57 26.4611 67.57 26.1419 67.57 25.7885C67.57 25.435 67.456 25.2184 67.0798 25.1386C66.9546 25.1273 66.8287 25.1273 66.7035 25.1386C66.7035 25.1386 66.6123 25.1386 66.6123 25.0702C66.6123 25.0018 66.6693 24.979 66.7833 24.979H67.6042H68.0602H70.6482C70.8092 24.9743 70.9694 24.9552 71.127 24.922C71.1801 24.917 71.2335 24.917 71.2866 24.922C71.2866 24.922 71.2866 24.922 71.2866 25.0132C71.2866 25.1044 71.2296 25.2298 71.1954 25.5491C71.1954 25.6631 71.1954 26.1533 71.1954 26.2901C71.1954 26.4269 71.1954 26.4155 71.127 26.4155C71.0586 26.4155 71.0358 26.3585 71.0358 26.2673C71.0457 26.1288 71.0302 25.9897 70.9902 25.8569C70.9104 25.6744 70.7963 25.5376 70.1807 25.4692C69.9983 25.4692 68.7671 25.4692 68.6416 25.4692C68.5162 25.4692 68.5732 25.4692 68.5732 25.5833V28.6956C68.5732 28.7754 68.5732 28.8096 68.6416 28.8096C68.7101 28.8096 70.1693 28.8096 70.4316 28.8096C70.6938 28.8096 70.8647 28.8096 70.9674 28.65C71.07 28.4904 71.0928 28.5018 71.1384 28.5018C71.184 28.5018 71.1384 28.5018 71.1384 28.593C71.1384 28.6842 71.1384 28.8552 71.0472 29.2314C70.956 29.6077 71.0472 29.8699 71.0472 29.9497C71.0472 30.0295 71.0472 30.1663 70.9674 30.1663C70.8875 30.1663 70.8875 30.1663 70.8875 30.0637C70.9084 29.9391 70.9084 29.812 70.8875 29.6874C70.8875 29.5278 70.7394 29.334 70.2948 29.2998C69.8501 29.2656 68.881 29.2428 68.6872 29.2428C68.6763 29.2408 68.6651 29.2415 68.6545 29.2448C68.6438 29.248 68.6342 29.2538 68.6263 29.2617C68.6185 29.2696 68.6126 29.2792 68.6094 29.2898C68.6061 29.3005 68.6054 29.3117 68.6074 29.3227V30.3145C68.6074 30.6907 68.6074 32.0018 68.6074 32.2412C68.6074 33.0165 68.8127 33.1647 69.9185 33.1647C70.303 33.191 70.689 33.1485 71.0586 33.0392C71.3436 32.9138 71.4804 32.6858 71.5602 32.2298C71.5602 32.1044 71.5602 32.0588 71.6628 32.0588C71.7654 32.0588 71.7312 32.15 71.7312 32.2298C71.7018 32.6121 71.6523 32.9927 71.583 33.3699C71.5032 33.6663 71.412 33.6663 70.9788 33.6663C70.1351 33.6663 69.5081 33.6663 69.0749 33.6663H68.1856H67.741H67.0798C66.9544 33.6663 66.8973 33.6663 66.8973 33.5751C66.8973 33.4839 66.8973 33.5067 66.9885 33.5067C67.1023 33.5178 67.2168 33.5178 67.3305 33.5067C67.5586 33.5067 67.6156 33.2103 67.6612 32.8796C67.7068 32.549 67.6612 31.523 67.6612 30.4399L67.57 28.2168Z" fill="#42271e"/>
<path d="M23.9512 43.5278C23.9512 43.3454 23.9512 43.1516 23.9512 42.9692V42.2168C23.9512 42.0344 23.9512 41.8405 23.9512 41.6581C23.9512 41.4757 23.9512 41.2933 23.9512 41.0995H24.0538H24.2476H24.3616C24.3616 41.2933 24.3616 41.4757 24.3616 41.6581C24.3616 41.8405 24.3616 42.0344 24.3616 42.2168V42.4562L24.6808 42.1597L25.0228 41.8177L25.3534 41.4529L25.6613 41.0995H25.7525H25.9463H26.0489L25.7069 41.4073L25.3877 41.8177L25.0114 42.1826L24.7264 42.4904L25.4332 43.2998L26.1515 44.1206H25.6613L25.3193 43.7102L24.943 43.2656L24.6238 42.878L24.4072 42.6386V42.9578C24.4072 43.1402 24.4072 43.334 24.4072 43.5164C24.4072 43.6988 24.4072 43.8812 24.4072 44.0637H23.9854C23.9854 43.8812 23.9854 43.6988 23.9854 43.5164" fill="#42271e"/>
<path d="M29.9487 41.5555C29.9583 41.4036 29.9583 41.2513 29.9487 41.0995H30.0399H30.1197H30.2565C30.2565 41.2021 30.2565 41.3275 30.2565 41.4643C30.2565 41.6011 30.2565 41.7493 30.2565 41.9089C30.2565 42.0685 30.2565 42.2396 30.2565 42.3992C30.2565 42.5588 30.2565 42.7412 30.2565 42.8894C30.2571 43.0682 30.2262 43.2457 30.1653 43.4138C30.1124 43.5578 30.031 43.6896 29.9259 43.8014C29.8189 43.907 29.6907 43.9886 29.5497 44.0409C29.3808 44.0976 29.2034 44.1246 29.0253 44.1206C28.8548 44.1722 28.6742 44.1799 28.5 44.1433C28.3258 44.1066 28.1636 44.0266 28.0285 43.9108C27.8933 43.7949 27.7894 43.6469 27.7265 43.4803C27.6637 43.3138 27.6437 43.1341 27.6686 42.9578C27.6686 42.821 27.6686 42.707 27.6686 42.6044C27.6743 42.4942 27.6743 42.3839 27.6686 42.2737V41.6353C27.6686 41.4415 27.6686 41.2933 27.6686 41.1565H27.7826H27.9878H28.079C28.079 41.2249 28.079 41.3047 28.079 41.4073C28.079 41.5099 28.079 41.6239 28.079 41.7493C28.079 41.8747 28.079 42.0229 28.079 42.1711V42.9464C28.0678 43.0487 28.0678 43.1519 28.079 43.2542C28.0931 43.3523 28.1199 43.4481 28.1588 43.5392C28.1943 43.6324 28.2533 43.7148 28.3298 43.7786C28.4067 43.8474 28.4956 43.9015 28.592 43.9382C28.7253 43.9771 28.8636 43.9964 29.0024 43.9953C29.1387 43.9998 29.2745 43.9765 29.4015 43.9269C29.5025 43.8823 29.5951 43.8206 29.6751 43.7444C29.7414 43.6657 29.7953 43.5773 29.8347 43.4822C29.8733 43.3831 29.9 43.2798 29.9145 43.1744C29.9257 43.0683 29.9257 42.9613 29.9145 42.8552V41.6125" fill="#42271e"/>
<path d="M32.4573 42.7289H33.3693L32.8905 41.5888L32.4573 42.7289ZM34.3612 44.0742H33.9051C33.8855 43.9922 33.8588 43.9121 33.8254 43.8348C33.7924 43.7341 33.7543 43.6352 33.7113 43.5384C33.7113 43.4358 33.6315 43.3332 33.5859 43.2191C33.5403 43.1051 33.5061 43.0139 33.4605 42.9227H32.3205L32.0696 43.5612C32.0012 43.7664 31.9442 43.9374 31.91 44.0742H31.5908L32.2635 42.5693C32.4915 42.0677 32.7081 41.5547 32.9361 41.0416H33.0159L33.2439 41.5888L33.4947 42.1817C33.5745 42.3755 33.6543 42.5693 33.7456 42.7631C33.8368 42.9569 33.9052 43.1507 33.9736 43.3103L34.1788 43.7664L34.3156 44.0742" fill="#42271e"/>
<path d="M35.7861 41.6581C35.7861 41.4757 35.7861 41.2933 35.7861 41.0995H35.8888H36.1054H36.208C36.208 41.2933 36.208 41.4757 36.208 41.6581C36.208 41.8405 36.208 42.0344 36.208 42.2168V43.163C36.208 43.4252 36.208 43.6646 36.208 43.8812H36.7894C36.9905 43.897 37.1926 43.897 37.3937 43.8812C37.363 43.962 37.363 44.0513 37.3937 44.1321H35.7975C35.7975 43.9496 35.7975 43.7672 35.7975 43.5848C35.7975 43.4024 35.7975 43.2086 35.7975 43.0262V42.2737C35.7975 42.0913 35.7975 41.8975 35.7975 41.7151" fill="#42271e"/>
<path d="M39.3195 42.7284H40.2658L39.787 41.5884L39.3195 42.7284ZM41.2349 44.0965H40.7788L40.6876 43.8571C40.6546 43.7565 40.6166 43.6575 40.5736 43.5607C40.5736 43.4581 40.4938 43.3555 40.4482 43.2415C40.4026 43.1275 40.3684 43.0363 40.3342 42.9451H39.1941C39.1029 43.1731 39.0117 43.3897 38.9433 43.5835C38.876 43.7509 38.8189 43.9222 38.7723 44.0965H38.4531C38.6811 43.5797 38.9091 43.0781 39.1371 42.5916L39.8098 41.064H39.8895L40.1062 41.6112C40.186 41.805 40.2772 41.9988 40.357 42.204L40.6078 42.7855C40.6914 42.9907 40.7712 43.1731 40.8472 43.3327L41.041 43.7887C41.098 43.9255 41.155 44.0281 41.1892 44.0965" fill="#42271e"/>
<path d="M44.7686 41.6581C44.7686 41.4757 44.7686 41.2933 44.7686 41.0995H44.8712H45.0764H45.1904C45.1904 41.2933 45.1904 41.4757 45.1904 41.6581C45.1904 41.8405 45.1904 42.0344 45.1904 42.2168V43.163C45.1904 43.4252 45.1904 43.6646 45.1904 43.8812H45.7718C45.9729 43.8973 46.1749 43.8973 46.376 43.8812C46.3608 43.9642 46.3608 44.0491 46.376 44.1321H44.7686C44.7686 43.9496 44.7686 43.7672 44.7686 43.5848C44.7686 43.4024 44.7686 43.2086 44.7686 43.0262V42.2737C44.7686 42.0913 44.7686 41.8975 44.7686 41.7151" fill="#42271e"/>
<path d="M50.0357 41.5555C50.0357 41.3389 50.0357 41.1793 50.0357 41.0995H50.1269H50.2067H50.3435C50.3435 41.2021 50.3435 41.3275 50.3435 41.4643C50.3435 41.6011 50.3435 41.7493 50.3435 41.9089C50.3435 42.0685 50.3435 42.2396 50.3435 42.3992C50.3435 42.5588 50.3435 42.7412 50.3435 42.8894C50.3441 43.0682 50.3132 43.2457 50.2523 43.4138C50.1994 43.5578 50.1179 43.6896 50.0129 43.8014C49.9059 43.907 49.7777 43.9886 49.6367 44.0409C49.4678 44.0976 49.2904 44.1246 49.1123 44.1206C48.9442 44.1525 48.7709 44.1433 48.6071 44.0936C48.4434 44.044 48.2941 43.9554 48.172 43.8356C48.0499 43.7157 47.9587 43.5681 47.906 43.4053C47.8533 43.2425 47.8408 43.0695 47.8696 42.9008C47.8696 42.764 47.8696 42.65 47.8696 42.5474C47.8752 42.4373 47.8752 42.3269 47.8696 42.2168C47.8696 41.9773 47.8696 41.7607 47.8696 41.5783C47.8696 41.3959 47.8696 41.2363 47.8696 41.0995H47.9836H48.1888H48.28C48.28 41.1679 48.28 41.2477 48.28 41.3503C48.28 41.4529 48.28 41.5669 48.28 41.6923C48.28 41.8177 48.28 41.966 48.28 42.1142C48.28 42.2624 48.28 42.422 48.28 42.5816C48.28 42.7412 48.28 42.7868 48.28 42.8894C48.2744 42.9919 48.2744 43.0947 48.28 43.1972C48.2978 43.2958 48.3284 43.3916 48.3712 43.4822C48.4068 43.5724 48.4612 43.6541 48.5308 43.7217C48.6141 43.7873 48.7062 43.841 48.8044 43.8812C48.9377 43.9201 49.076 43.9393 49.2149 43.9382C49.3512 43.9428 49.4869 43.9195 49.6139 43.8698C49.7132 43.8282 49.8025 43.7661 49.8761 43.6875C49.946 43.6092 50.0037 43.5208 50.0471 43.4252C50.0804 43.3245 50.1071 43.2217 50.1269 43.1174C50.1325 43.0111 50.1325 42.9045 50.1269 42.7982V41.5555" fill="#42271e"/>
<path d="M52.9193 42.2389C53.1131 42.6265 53.3297 43.0141 53.5577 43.3789C53.5953 43.297 53.6372 43.2171 53.6831 43.1395C53.6831 43.0369 53.7971 42.9229 53.8655 42.7975C53.9339 42.6721 54.0137 42.5125 54.1049 42.3643L54.3557 41.8969C54.4355 41.7372 54.5153 41.5776 54.6065 41.4294L54.8346 40.9962C54.8346 41.2698 54.8345 41.5434 54.9257 41.8056C55.0169 42.0678 54.9257 42.3073 55.0055 42.5581C55.0853 42.8089 55.0626 43.0597 55.0968 43.2991C55.131 43.5385 55.0968 43.7894 55.188 44.0288H54.7889C54.7889 43.6411 54.7206 43.2649 54.6864 42.8887C54.6522 42.5125 54.6179 42.1591 54.5723 41.7486L53.9909 42.8887C53.7971 43.2535 53.6147 43.6183 53.4437 44.0288C53.2727 43.6639 53.0903 43.2991 52.9079 42.8887C52.7255 42.4783 52.5316 42.1477 52.3378 41.7486C52.325 41.9435 52.3022 42.1376 52.2694 42.3301C52.2694 42.5353 52.2694 42.7405 52.2124 42.9457C52.1554 43.1509 52.2124 43.3447 52.2124 43.5271C52.2124 43.7095 52.2124 43.8464 52.2124 43.9718H51.916C51.916 43.7324 51.9844 43.4929 52.03 43.2307C52.0756 42.9685 52.1098 42.7063 52.144 42.4441L52.2466 41.6688C52.2466 41.418 52.2466 41.1672 52.3264 40.9392H52.4062C52.6 41.3496 52.8052 41.7486 53.0104 42.1363" fill="#42271e"/>
<path d="M57.309 42.5811C57.3999 42.5921 57.4918 42.5921 57.5826 42.5811C57.6771 42.562 57.7664 42.5231 57.8448 42.4671C57.929 42.4151 57.9963 42.3399 58.0387 42.2505C58.0971 42.1422 58.1247 42.0199 58.1185 41.8971C58.1391 41.7955 58.1391 41.6908 58.1185 41.5892C58.0891 41.5178 58.042 41.4551 57.9817 41.4068C57.9118 41.3629 57.8345 41.332 57.7537 41.3156H57.4458H57.0582V42.6039C57.1605 42.6151 57.2637 42.6151 57.366 42.6039M56.6934 41.6804C56.6934 41.498 56.6934 41.3156 56.6934 41.1218H56.8986H57.8107H58.0044L58.2211 41.1788C58.2862 41.214 58.3474 41.256 58.4035 41.3042C58.4618 41.3632 58.5082 41.4329 58.5403 41.5094C58.5778 41.6077 58.5971 41.712 58.5973 41.8172C58.6027 41.982 58.5591 42.1447 58.4719 42.2847C58.3921 42.3987 58.2867 42.4924 58.1641 42.5583C58.0485 42.6274 57.9208 42.6738 57.7878 42.6951H57.4344H57.081V42.9573C57.081 43.1397 57.081 43.3335 57.081 43.5159C57.081 43.6983 57.081 43.8808 57.081 44.0632H56.6592C56.6592 43.8808 56.6592 43.6983 56.6592 43.5159C56.6592 43.3335 56.6592 43.1397 56.6592 42.9573V42.2049C56.6592 42.0225 56.6592 41.8287 56.6592 41.6462" fill="#42271e"/>
<path d="M62.1555 41.5555C62.1651 41.4036 62.1651 41.2513 62.1555 41.0995H62.2467H62.3379H62.4634C62.4634 41.2021 62.4634 41.3275 62.4634 41.4643C62.4634 41.6011 62.4634 41.7493 62.4634 41.9089C62.4634 42.0685 62.4634 42.2396 62.4634 42.3992C62.4634 42.5588 62.4634 42.7412 62.4634 42.8894C62.4673 43.0675 62.4403 43.2449 62.3835 43.4138C62.3348 43.5598 62.2528 43.6925 62.144 43.8013C62.0351 43.9102 61.9025 43.9922 61.7565 44.0409C61.5881 44.0995 61.4103 44.1266 61.2321 44.1206C61.0644 44.1532 60.8913 44.1443 60.7278 44.0947C60.5643 44.0451 60.4154 43.9563 60.2941 43.8361C60.1727 43.7159 60.0826 43.5678 60.0315 43.4048C59.9804 43.2418 59.9698 43.0688 60.0008 42.9008C59.9945 42.7831 59.9945 42.6651 60.0008 42.5474C60.0065 42.4373 60.0065 42.3269 60.0008 42.2168C60.0008 41.9773 60.0008 41.7607 60.0008 41.5783C60.0008 41.3959 60.0008 41.2363 60.0008 41.0995H60.1148H60.32H60.4112C60.4112 41.1679 60.4112 41.2477 60.4112 41.3503C60.4112 41.4529 60.4112 41.5669 60.4112 41.6923C60.4112 41.8177 60.4112 41.966 60.4112 42.1142C60.4112 42.2624 60.4112 42.422 60.4112 42.5816C60.4036 42.7867 60.4036 42.9921 60.4112 43.1972C60.4289 43.2958 60.4596 43.3916 60.5024 43.4822C60.538 43.5724 60.5925 43.6541 60.662 43.7217C60.7415 43.7929 60.8346 43.8471 60.9356 43.8812C61.0689 43.9201 61.2072 43.9393 61.346 43.9382C61.4823 43.9419 61.6179 43.9186 61.7451 43.8698C61.8427 43.8251 61.9315 43.7634 62.0073 43.6875C62.0774 43.6116 62.1317 43.5224 62.1669 43.4252C62.2093 43.3266 62.2399 43.2232 62.2582 43.1174C62.2638 43.0111 62.2638 42.9045 62.2582 42.7982C62.2636 42.6994 62.2636 42.6005 62.2582 42.5018C62.2582 42.0914 62.2582 41.7835 62.2582 41.5555" fill="#42271e"/>
<path d="M64.4352 42.4788H64.5948H64.8685C64.9607 42.4585 65.0492 42.4239 65.1306 42.3762C65.215 42.3258 65.2855 42.2553 65.3358 42.171C65.3939 42.075 65.4217 41.9638 65.4157 41.8518C65.4166 41.7538 65.3972 41.6568 65.3587 41.5667C65.3135 41.499 65.2554 41.4409 65.1876 41.3957C65.122 41.3517 65.0484 41.3207 64.971 41.3045H64.7431H64.3326C64.3326 41.4641 64.3326 41.6237 64.3326 41.7719C64.3326 41.9201 64.3326 42.0912 64.3326 42.2394V42.4902H64.4695M63.9678 41.6693C63.9678 41.4869 63.9678 41.3045 63.9678 41.1107H64.2186H64.9597H65.3017C65.4023 41.1328 65.4986 41.1713 65.5867 41.2247C65.6683 41.2797 65.7349 41.3542 65.7805 41.4413C65.8296 41.5404 65.8531 41.6501 65.8489 41.7606C65.8572 41.8851 65.8252 42.009 65.7577 42.114C65.7005 42.2129 65.6228 42.2985 65.5297 42.3648C65.4449 42.4318 65.3482 42.482 65.2447 42.513L64.971 42.5814L65.1079 42.7638L65.3131 43.026L65.5525 43.3224L65.7805 43.6075L65.9971 43.8696C66.0449 43.935 66.0983 43.996 66.1567 44.0521H65.6437L65.4499 43.7785L65.1535 43.3908C65.0509 43.2426 64.9369 43.1058 64.8229 42.969C64.7323 42.8482 64.6332 42.7339 64.5264 42.627H64.3554V42.9576C64.3554 43.14 64.3554 43.3338 64.3554 43.5162C64.3554 43.6986 64.3554 43.8811 64.3554 44.0635H63.9336C63.9336 43.8811 63.9336 43.6986 63.9336 43.5162C63.9336 43.3338 63.9336 43.14 63.9336 42.9576V42.2052C63.9336 42.0228 63.9336 41.829 63.9336 41.6465" fill="#42271e"/>
</svg>
